<svg width="30" height="31" viewBox="0 0 30 31" fill="none" xmlns="http://www.w3.org/2000/svg">
<g filter="url(#filter0_d_14_70)">
<path d="M9.43949 3.83408C9.70916 2.72197 11.2908 2.72197 11.5605 3.83408L12.3025 6.89413C12.3988 7.29118 12.7088 7.6012 13.1059 7.69748L16.1659 8.43949C17.278 8.70916 17.278 10.2908 16.1659 10.5605L13.1059 11.3025C12.7088 11.3988 12.3988 11.7088 12.3025 12.1059L11.5605 15.1659C11.2908 16.278 9.70916 16.278 9.43949 15.1659L8.69748 12.1059C8.6012 11.7088 8.29118 11.3988 7.89413 11.3025L4.83408 10.5605C3.72197 10.2908 3.72197 8.70916 4.83408 8.43949L7.89413 7.69748C8.29118 7.6012 8.6012 7.29118 8.69748 6.89413L9.43949 3.83408Z" fill="#00FFB3"/>
<path d="M18.3474 14.5133C18.5133 13.8289 19.4867 13.8289 19.6526 14.5133L20.1092 16.3964C20.1685 16.6407 20.3593 16.8315 20.6036 16.8908L22.4867 17.3474C23.1711 17.5133 23.1711 18.4867 22.4867 18.6526L20.6036 19.1092C20.3593 19.1685 20.1685 19.3593 20.1092 19.6036L19.6526 21.4867C19.4867 22.1711 18.5133 22.1711 18.3474 21.4867L17.8908 19.6036C17.8315 19.3593 17.6407 19.1685 17.3964 19.1092L15.5133 18.6526C14.8289 18.4867 14.8289 17.5133 15.5133 17.3474L17.3964 16.8908C17.6407 16.8315 17.8315 16.6407 17.8908 16.3964L18.3474 14.5133Z" fill="#00FFB3"/>
<path d="M21.5717 3.71184C21.6806 3.26272 22.3194 3.26272 22.4283 3.71184L22.7279 4.94763C22.7668 5.10798 22.892 5.23318 23.0524 5.27206L24.2882 5.57172C24.7373 5.68062 24.7373 6.31938 24.2882 6.42828L23.0524 6.72794C22.892 6.76682 22.7668 6.89202 22.7279 7.05237L22.4283 8.28816C22.3194 8.73728 21.6806 8.73728 21.5717 8.28816L21.2721 7.05237C21.2332 6.89202 21.108 6.76682 20.9476 6.72794L19.7118 6.42828C19.2627 6.31938 19.2627 5.68062 19.7118 5.57172L20.9476 5.27206C21.108 5.23318 21.2332 5.10798 21.2721 4.94763L21.5717 3.71184Z" fill="#00FFB3"/>
<path fill-rule="evenodd" clip-rule="evenodd" d="M22 3.93109L21.7554 4.93972C21.6577 5.34288 21.3429 5.65766 20.9397 5.75542L19.9311 6L20.9397 6.24458C21.3429 6.34234 21.6577 6.65712 21.7554 7.06029L22 8.06891L22.2446 7.06029C22.3423 6.65712 22.6571 6.34234 23.0603 6.24458L24.0689 6L23.0603 5.75542C22.6571 5.65766 22.3423 5.34288 22.2446 4.93972L22 3.93109ZM22.4895 3.38496C22.365 2.87168 21.635 2.87168 21.5105 3.38496L21.1681 4.79729C21.1236 4.98055 20.9805 5.12363 20.7973 5.16807L19.385 5.51054C18.8717 5.635 18.8717 6.365 19.385 6.48947L20.7973 6.83193C20.9805 6.87637 21.1236 7.01945 21.1681 7.20271L21.5105 8.61504C21.635 9.12832 22.365 9.12832 22.4895 8.61504L22.8319 7.20271C22.8764 7.01945 23.0195 6.87637 23.2027 6.83193L24.615 6.48947C25.1283 6.365 25.1283 5.635 24.615 5.51054L23.2027 5.16807C23.0195 5.12363 22.8764 4.98055 22.8319 4.79729L22.4895 3.38496Z" fill="#00FFB3"/>
<path d="M10 23C9.44772 23 9 22.5523 9 22C9 21.4477 9.44772 21 10 21C10.5523 21 11 21.4477 11 22C11 22.5523 10.5523 23 10 23Z" fill="#00FFB3"/>
<path d="M5 19C4.44772 19 4 18.5523 4 18C4 17.4477 4.44772 17 5 17C5.55228 17 6 17.4477 6 18C6 18.5523 5.55228 19 5 19Z" fill="#00FFB3"/>
<path d="M16 3C15.4477 3 15 2.55228 15 2C15 1.44772 15.4477 1 16 1C16.5523 1 17 1.44772 17 2C17 2.55228 16.5523 3 16 3Z" fill="#00FFB3"/>
<path d="M25 14C24.4477 14 24 13.5523 24 13C24 12.4477 24.4477 12 25 12C25.5523 12 26 12.4477 26 13C26 13.5523 25.5523 14 25 14Z" fill="#00FFB3"/>
</g>
<defs>
<filter id="filter0_d_14_70" x="-1" y="0" width="32" height="32" filterUnits="userSpaceOnUse" color-interpolation-filters="sRGB">
<feFlood flood-opacity="0" result="BackgroundImageFix"/>
<feColorMatrix in="SourceAlpha" type="matrix" values="0 0 0 0 0 0 0 0 0 0 0 0 0 0 0 0 0 0 127 0" result="hardAlpha"/>
<feOffset dy="4"/>
<feGaussianBlur stdDeviation="2"/>
<feComposite in2="hardAlpha" operator="out"/>
<feColorMatrix type="matrix" values="0 0 0 0 0 0 0 0 0 0 0 0 0 0 0 0 0 0 0.25 0"/>
<feBlend mode="normal" in2="BackgroundImageFix" result="effect1_dropShadow_14_70"/>
<feBlend mode="normal" in="SourceGraphic" in2="effect1_dropShadow_14_70" result="shape"/>
</filter>
</defs>
</svg>
